# xmcd
# Copyright (C) 1995-1998 Ti Kan
#
# Track frame offsets:
#       150
#       14092
#       28323
#
# Disc length: 599 seconds
#
# Revision: 1
# Processed by: cddbd v1.4PL0 Copyright (c) Steve Scherf et al.
# Submitted via: CD-Transfer v1.0
#
DISCID=23025503
DTITLE=Puretone - Stuck In A Groove
DYEAR=2002
DGENRE=
TTITLE0=Stuck In A Groove (Italian Radio Edit)
TTITLE1=Stuck In A Groove (Radio Edit)
TTITLE2=Stuck In A Groove (Tom Mandolini Remix Edit)
EXTD=
EXTT0=
EXTT1=
EXTT2=
PLAYORDER=
